<svg xmlns="http://www.w3.org/2000/svg" xmlns:xlink="http://www.w3.org/1999/xlink" width="500" zoomAndPan="magnify" viewBox="0 0 375 374.999991" height="500" preserveAspectRatio="xMidYMid meet" version="1.0"><defs><filter x="0%" y="0%" width="100%" height="100%" id="8b43c15647"><feColorMatrix values="0 0 0 0 1 0 0 0 0 1 0 0 0 0 1 0 0 0 1 0" color-interpolation-filters="sRGB"/></filter><g/><mask id="01d71f19ed"><g filter="url(#8b43c15647)"><rect x="-37.5" width="450" fill="#000000" y="-37.499999" height="449.999989" fill-opacity="0.9"/></g></mask><clipPath id="2423dfe92e"><path d="M 0.839844 1.042969 L 307.800781 1.042969 L 307.800781 306.292969 L 0.839844 306.292969 Z M 0.839844 1.042969 " clip-rule="nonzero"/></clipPath><clipPath id="a492ca7a6b"><rect x="0" width="308" y="0" height="307"/></clipPath><clipPath id="16d33d67ec"><path d="M 29 3 L 38 3 L 38 12 L 29 12 Z M 29 3 " clip-rule="nonzero"/></clipPath><clipPath id="59b3a1876a"><path d="M 27.089844 8.015625 L 34.414062 0.691406 L 37.550781 3.832031 L 30.226562 11.15625 Z M 27.089844 8.015625 " clip-rule="nonzero"/></clipPath><clipPath id="60bdccd3d3"><path d="M 27.089844 8.015625 L 34.414062 0.691406 L 37.550781 3.832031 L 30.226562 11.15625 Z M 27.089844 8.015625 " clip-rule="nonzero"/></clipPath><clipPath id="af11e8a98f"><path d="M 0.84375 1.863281 L 89.632812 1.863281 L 89.632812 34 L 0.84375 34 Z M 0.84375 1.863281 " clip-rule="nonzero"/></clipPath><clipPath id="e18c9b9ddc"><rect x="0" width="91" y="0" height="35"/></clipPath></defs><g mask="url(#01d71f19ed)"><g transform="matrix(1, 0, 0, 1, 33, 34)"><g clip-path="url(#a492ca7a6b)"><path fill="#e3d9ca" d="M 75.3125 280.789062 C 68.417969 276.710938 61.832031 272.074219 55.660156 266.972656 C 49.460938 261.902344 43.816406 256.226562 38.609375 250.308594 C 33.414062 244.371094 28.707031 238.109375 24.652344 231.601562 C 20.589844 225.101562 16.941406 218.488281 14.035156 211.742188 C 18.820312 222.460938 24.792969 232.648438 31.882812 241.988281 C 26.589844 234.972656 22.324219 228.042969 18.601562 220.796875 C 17.714844 218.964844 16.722656 217.179688 15.925781 215.285156 C 15.105469 213.40625 14.28125 211.511719 13.449219 209.589844 C 12.714844 207.632812 11.972656 205.652344 11.210938 203.636719 C 10.476562 201.617188 9.867188 199.511719 9.175781 197.386719 C 9.710938 198.628906 10.320312 200.25 10.960938 202.019531 C 11.621094 203.78125 12.425781 205.652344 13.148438 207.46875 C 13.851562 209.292969 14.664062 210.980469 15.359375 212.378906 C 16.054688 213.777344 16.644531 214.875 17.066406 215.449219 C 26.210938 234.710938 39.441406 252.019531 55.464844 265.988281 C 71.464844 279.996094 90.398438 290.5 110.417969 296.664062 C 102.261719 294.914062 95.921875 292.363281 90.484375 289.519531 C 84.988281 286.773438 80.378906 283.714844 75.3125 280.789062 " fill-opacity="1" fill-rule="nonzero"/><path fill="#e3d9ca" d="M 2.457031 150.703125 C 2.515625 152.84375 2.578125 154.957031 2.636719 157.050781 C 2.660156 159.140625 2.917969 161.207031 3.046875 163.261719 C 2.5625 158.894531 2.480469 154.570312 2.457031 150.703125 " fill-opacity="1" fill-rule="nonzero"/><path fill="#e3d9ca" d="M 295.253906 185.660156 L 295.996094 182.191406 C 296.25 181.035156 296.503906 179.878906 296.675781 178.714844 C 297.035156 176.390625 297.503906 174.097656 297.785156 171.820312 C 297.5625 174.121094 297.101562 176.417969 296.734375 178.738281 C 296.5625 179.90625 296.300781 181.054688 296.035156 182.207031 L 295.253906 185.660156 " fill-opacity="1" fill-rule="nonzero"/><path fill="#e3d9ca" d="M 128.289062 297.066406 C 130.78125 297.460938 133.316406 297.621094 135.875 297.898438 C 154.976562 300.257812 174.847656 299.027344 194.0625 293.761719 C 183.632812 296.65625 172.554688 298.652344 161.363281 299.304688 C 150.179688 299.960938 138.902344 299.214844 128.289062 297.066406 " fill-opacity="1" fill-rule="nonzero"/><path fill="#e3d9ca" d="M 108.390625 290.992188 C 99.089844 288.050781 90.039062 284.0625 81.636719 279.222656 C 73.230469 274.386719 65.476562 268.703125 58.644531 262.527344 C 72.378906 274.796875 89.515625 284.871094 108.390625 290.992188 " fill-opacity="1" fill-rule="nonzero"/><path fill="#e3d9ca" d="M 255.289062 55.691406 C 255.261719 55.824219 254.957031 55.625 254.542969 55.296875 C 254.140625 54.921875 253.765625 54.59375 253.4375 54.339844 C 248.371094 48.886719 242.917969 43.785156 237.074219 39.183594 C 238.558594 40.28125 240.042969 41.179688 241.535156 42.339844 C 243.117188 43.660156 244.285156 44.839844 245.359375 45.832031 C 246.429688 46.835938 247.347656 47.726562 248.238281 48.683594 C 249.144531 49.621094 250.085938 50.570312 251.230469 51.664062 C 252.375 52.757812 253.625 54.101562 255.289062 55.691406 " fill-opacity="1" fill-rule="nonzero"/><path fill="#e3d9ca" d="M 293.929688 190.765625 C 293.902344 190.925781 293.878906 191.09375 293.851562 191.257812 C 293.433594 192.828125 293.050781 194.382812 292.53125 195.894531 C 292.460938 196.070312 292.394531 196.234375 292.316406 196.433594 C 292.921875 194.574219 293.414062 192.671875 293.929688 190.765625 " fill-opacity="1" fill-rule="nonzero"/><path fill="#e3d9ca" d="M 261.484375 62.886719 C 261.410156 63.136719 261.339844 63.390625 261.609375 64 C 260.378906 62.296875 258.984375 60.730469 257.65625 59.113281 C 256.347656 57.472656 254.914062 55.949219 253.496094 54.40625 C 253.878906 54.738281 254.242188 55.054688 254.542969 55.296875 C 255.050781 55.777344 255.613281 56.34375 256.203125 56.957031 C 256.777344 57.585938 257.359375 58.28125 257.960938 58.972656 C 259.140625 60.375 260.433594 61.726562 261.484375 62.886719 " fill-opacity="1" fill-rule="nonzero"/><path fill="#e3d9ca" d="M 290.960938 151.371094 C 290.902344 154.03125 291.273438 156.40625 291.351562 157.664062 C 290.644531 164.546875 289.609375 171.363281 287.796875 179.277344 C 287.613281 180.519531 287.058594 183.113281 286.664062 185.605469 C 286.089844 186.992188 285.507812 188.5 284.921875 190.085938 C 290.078125 173.050781 292.011719 154.59375 290.171875 135.855469 C 290.457031 138.363281 290.601562 140.910156 290.820312 143.488281 C 290.878906 146.074219 290.980469 148.699219 290.960938 151.371094 " fill-opacity="1" fill-rule="nonzero"/><g clip-path="url(#2423dfe92e)"><path fill="#e3d9ca" d="M 9.617188 147.039062 C 9.617188 140.824219 10.316406 134.390625 11.320312 127.914062 C 11.921875 124.691406 12.472656 121.429688 13.320312 118.21875 C 14.023438 114.972656 15.035156 111.800781 15.957031 108.609375 C 19.996094 95.949219 25.585938 83.929688 31.691406 73.445312 C 27.734375 79.351562 23.792969 86.117188 20.625 93.222656 C 17.402344 100.296875 14.792969 107.605469 12.8125 114.320312 C 9 127.800781 7.800781 138.796875 6.726562 140.863281 C 6.179688 141.902344 6.085938 139.945312 6.277344 136.046875 C 6.425781 134.105469 6.75 131.6875 7.097656 128.925781 C 7.273438 127.546875 7.59375 126.097656 7.863281 124.574219 C 8.175781 123.058594 8.398438 121.453125 8.824219 119.832031 C 10.277344 113.304688 12.550781 106.109375 15.148438 99.320312 C 17.789062 92.539062 20.902344 86.238281 23.535156 81.199219 C 21.984375 83.796875 21.984375 83.796875 20.441406 86.378906 C 21.214844 85.082031 21.988281 83.789062 22.695312 82.507812 C 23.050781 81.867188 23.390625 81.230469 23.703125 80.597656 C 24.039062 79.976562 24.363281 79.363281 24.644531 78.757812 C 23.78125 79.996094 22.851562 81.609375 21.855469 83.34375 C 20.851562 85.078125 19.773438 86.925781 18.863281 88.773438 C 17.9375 90.605469 16.957031 92.332031 16.234375 93.84375 C 15.503906 95.347656 14.875 96.570312 14.421875 97.296875 C 14.957031 95.570312 15.449219 93.816406 16.03125 92.097656 C 12.328125 98.957031 8.1875 109.492188 5.550781 120.484375 C 2.859375 131.46875 1.675781 142.78125 0.964844 150.703125 C 2.101562 131.414062 6.511719 110.457031 15.914062 90.40625 C 20.578125 80.386719 26.398438 70.605469 33.339844 61.402344 C 40.328125 52.242188 48.460938 43.707031 57.53125 36.082031 C 66.613281 28.46875 76.738281 21.917969 87.488281 16.519531 C 98.25 11.136719 109.75 7.15625 121.496094 4.480469 C 133.246094 1.777344 145.3125 0.71875 157.203125 0.917969 C 169.09375 1.164062 180.878906 2.703125 192.078125 5.714844 C 204.617188 8.960938 216.609375 13.570312 227.628906 19.605469 C 229 20.363281 230.386719 21.097656 231.75 21.871094 C 233.082031 22.683594 234.417969 23.496094 235.75 24.304688 L 237.742188 25.523438 L 239.675781 26.824219 C 240.964844 27.691406 242.25 28.554688 243.53125 29.421875 C 248.527344 33.058594 253.417969 36.800781 257.90625 40.933594 C 262.5 44.960938 266.671875 49.359375 270.726562 53.804688 C 274.640625 58.371094 278.429688 63.011719 281.777344 67.921875 C 288.546875 77.675781 294.242188 88.023438 298.519531 98.796875 C 298.890625 99.828125 299.328125 101.039062 299.816406 102.394531 C 300.054688 103.074219 300.304688 103.792969 300.570312 104.546875 C 300.820312 105.300781 301.035156 106.101562 301.28125 106.925781 C 301.753906 108.578125 302.261719 110.351562 302.792969 112.199219 C 303.222656 114.078125 303.675781 116.039062 304.136719 118.042969 C 305.855469 126.109375 306.914062 135.089844 307.253906 142.601562 C 308.039062 155.882812 307.210938 169.277344 304.734375 182.371094 L 303.695312 187.253906 C 303.511719 188.066406 303.359375 188.886719 303.15625 189.695312 L 302.519531 192.105469 L 301.234375 196.929688 L 299.734375 201.6875 L 298.980469 204.066406 L 298.117188 206.40625 L 296.394531 211.082031 L 294.464844 215.675781 L 293.496094 217.96875 L 292.429688 220.214844 C 280.183594 245.746094 260.667969 267.222656 236.667969 282.289062 C 212.691406 297.382812 184.050781 306.097656 153.863281 306.292969 C 150.859375 306.28125 147.574219 306.085938 144.816406 305.808594 C 142.058594 305.425781 139.832031 305.015625 138.898438 304.6875 C 137.964844 304.355469 138.335938 304.109375 140.757812 304.046875 C 141.96875 304.003906 143.691406 304.066406 146.027344 304.074219 C 147.195312 304.0625 148.515625 304.050781 150 304.035156 C 151.488281 304.019531 153.136719 304.078125 154.960938 303.960938 C 167.050781 303.5 179.136719 301.734375 190.914062 298.644531 C 202.679688 295.507812 214.085938 290.96875 224.878906 285.261719 C 224.316406 285.714844 223.234375 286.367188 221.859375 287.132812 C 221.164062 287.511719 220.402344 287.925781 219.597656 288.359375 C 218.765625 288.753906 217.890625 289.164062 216.996094 289.582031 C 215.195312 290.394531 213.363281 291.332031 211.597656 292.035156 C 209.84375 292.769531 208.238281 293.46875 207.007812 294.066406 C 215.546875 291.085938 223.054688 287.527344 230.207031 283.460938 C 237.347656 279.378906 244.152344 274.757812 251 269.089844 C 241.867188 276.652344 231.882812 283.167969 221.273438 288.496094 C 234.523438 281.855469 247.585938 272.992188 259.078125 261.917969 C 270.671875 250.960938 280.578125 237.757812 288.195312 223.472656 C 290.914062 218.210938 293.777344 213.414062 296.304688 207.742188 C 296.933594 206.320312 297.597656 204.875 298.207031 203.347656 C 298.773438 201.804688 299.339844 200.203125 299.898438 198.523438 C 300.492188 196.855469 300.941406 195.074219 301.394531 193.203125 C 301.824219 191.328125 302.332031 189.390625 302.601562 187.289062 C 299.945312 197.535156 296.199219 207.566406 291.433594 217.136719 C 286.644531 226.691406 280.835938 235.777344 274.148438 244.1875 C 260.773438 261.003906 243.917969 275.175781 224.878906 285.261719 C 224.941406 285.214844 225.015625 285.164062 225.054688 285.125 C 216.601562 289.6875 208.121094 293.253906 199.46875 295.96875 C 190.816406 298.691406 182.011719 300.628906 172.824219 301.824219 C 174.246094 301.609375 175.6875 301.449219 177.101562 301.183594 C 178.519531 300.917969 179.925781 300.648438 181.3125 300.386719 C 184.097656 299.921875 186.746094 299.222656 189.234375 298.71875 L 184.292969 299.761719 C 182.636719 300.066406 180.972656 300.308594 179.316406 300.585938 C 176.011719 301.199219 172.664062 301.445312 169.34375 301.859375 C 162.679688 302.382812 156.007812 302.710938 149.359375 302.410156 C 142.707031 302.269531 136.09375 301.503906 129.535156 300.523438 C 126.277344 299.898438 122.992188 299.417969 119.777344 298.585938 C 118.167969 298.199219 116.546875 297.847656 114.941406 297.425781 L 110.164062 296.046875 C 119.195312 298.476562 128.546875 300.132812 138.054688 300.945312 C 147.570312 301.75 157.230469 301.664062 166.875 300.71875 C 186.160156 298.839844 205.363281 293.242188 222.792969 284.117188 C 240.238281 275.03125 255.882812 262.464844 268.417969 247.546875 C 280.976562 232.648438 290.390625 215.417969 296.035156 197.511719 C 292.308594 207.386719 287.410156 218.65625 281.230469 228.871094 C 275.058594 239.070312 267.722656 248.175781 260.925781 254.332031 C 266.863281 248.171875 272.300781 241.515625 277.136719 234.417969 C 281.945312 227.304688 286.167969 219.773438 289.738281 211.90625 C 293.304688 204.042969 296.214844 195.84375 298.417969 187.414062 C 300.632812 178.980469 302.011719 170.296875 302.710938 161.523438 C 302.648438 162.832031 302.585938 164.121094 302.527344 165.40625 C 302.46875 166.691406 302.308594 167.960938 302.214844 169.234375 C 303.894531 158.417969 304.109375 147.003906 302.980469 135.734375 C 301.84375 124.457031 299.285156 113.359375 295.878906 102.953125 C 295.246094 101.097656 294.714844 99.222656 293.972656 97.394531 C 294.699219 99.195312 295.242188 101.09375 295.878906 102.953125 C 302.097656 122.113281 304.238281 142.136719 302.710938 161.523438 C 303.097656 152.613281 303.085938 143.121094 301.808594 131.867188 C 302.074219 134.917969 302.164062 138.652344 302.359375 142.710938 C 302.378906 146.78125 302.449219 151.179688 302.167969 155.570312 C 301.78125 167.105469 300.097656 178.609375 297.007812 189.609375 C 301.539062 172.519531 302.699219 154.859375 300.886719 139.058594 C 301.585938 150.945312 301.109375 163.09375 298.976562 174.992188 C 296.871094 186.875 293.46875 198.574219 288.546875 209.445312 C 291.089844 203.40625 293.347656 197.242188 295.035156 190.921875 C 295.976562 187.785156 296.632812 184.578125 297.355469 181.390625 C 297.734375 179.800781 297.9375 178.175781 298.238281 176.570312 C 298.5 174.957031 298.84375 173.359375 299.003906 171.734375 C 302.246094 150.058594 300.78125 127.417969 294.105469 105.992188 C 294.40625 106.789062 294.628906 107.625 294.882812 108.441406 C 294.445312 106.789062 293.847656 105.191406 293.304688 103.582031 C 290.554688 95.257812 287.035156 87.136719 282.785156 79.359375 C 278.949219 72.386719 274.335938 66.042969 269.375 60.132812 C 268.5625 59.101562 267.753906 58.078125 266.945312 57.058594 C 268.597656 58.902344 269.546875 59.695312 266.578125 55.929688 C 260.210938 47.921875 252.449219 40.476562 243.683594 33.773438 C 241.539062 32.03125 239.199219 30.511719 236.925781 28.875 C 234.625 27.269531 232.199219 25.808594 229.8125 24.246094 C 224.910156 21.347656 219.882812 18.457031 214.582031 15.90625 C 209.074219 13.113281 201.230469 10.183594 192.53125 7.980469 C 190.226562 7.148438 188.945312 6.980469 187.796875 6.851562 C 185.902344 6.472656 184.003906 5.996094 182.074219 5.6875 C 179.722656 5.292969 177.378906 4.828125 175.023438 4.503906 C 172.660156 4.234375 170.3125 3.945312 167.984375 3.753906 C 170.289062 4.023438 172.628906 4.292969 174.992188 4.566406 C 177.347656 4.878906 179.703125 5.320312 182.074219 5.6875 C 183.839844 5.984375 185.558594 6.441406 187.289062 6.800781 C 186.066406 6.695312 184.789062 6.53125 182.207031 6.027344 C 198.246094 9.363281 214.085938 15.308594 228.503906 24.042969 C 242.9375 32.726562 256.027344 43.941406 266.945312 57.058594 C 265.507812 55.601562 263.476562 53.539062 262.628906 52.679688 L 266.070312 56.335938 C 267.238281 57.542969 268.269531 58.867188 269.375 60.132812 C 276.183594 68.792969 282.113281 78.175781 286.851562 88.148438 C 286.15625 86.65625 285.328125 85.296875 284.582031 83.984375 C 283.816406 82.679688 283.105469 81.4375 282.371094 80.316406 C 289.765625 94.125 295.203125 109.070312 297.949219 124.585938 C 299.367188 132.328125 300.21875 140.195312 300.332031 148.089844 C 300.457031 155.972656 300.152344 163.898438 299.003906 171.734375 C 294.589844 201.09375 281.085938 228.554688 261.164062 249.820312 C 272.121094 238.601562 281.761719 224.871094 288.546875 209.445312 C 284.121094 219.71875 278.527344 229.503906 271.910156 238.546875 C 265.269531 247.578125 257.539062 255.796875 249.027344 263.085938 C 246.949219 264.964844 244.671875 266.609375 242.488281 268.359375 C 240.261719 270.0625 237.9375 271.632812 235.652344 273.253906 C 230.957031 276.300781 226.171875 279.226562 221.167969 281.734375 C 211.203125 286.824219 200.667969 290.785156 189.828125 293.421875 C 191.726562 292.734375 193.796875 291.984375 195.910156 291.222656 C 198.019531 290.460938 200.113281 289.515625 202.140625 288.695312 C 203.15625 288.289062 204.132812 287.839844 205.054688 287.375 C 205.976562 286.917969 206.863281 286.476562 207.695312 286.0625 C 208.523438 285.640625 209.300781 285.242188 209.996094 284.859375 C 210.679688 284.445312 211.289062 284.058594 211.8125 283.703125 C 211.699219 283.636719 210.804688 283.953125 209.640625 284.386719 C 208.460938 284.785156 207 285.277344 205.792969 285.6875 C 203.378906 286.507812 201.976562 286.957031 205.753906 285.335938 C 209.207031 283.898438 212.414062 282.253906 215.53125 280.753906 C 217.058594 279.933594 218.554688 279.128906 220.019531 278.335938 C 220.746094 277.9375 221.484375 277.570312 222.1875 277.15625 C 222.886719 276.738281 223.578125 276.324219 224.261719 275.914062 C 229.804688 272.738281 234.558594 269.335938 238.796875 266.183594 C 247.195312 259.761719 252.988281 253.613281 256.253906 248.449219 C 256.527344 247.929688 255.207031 248.933594 253.203125 250.597656 C 252.167969 251.386719 250.9375 252.324219 249.640625 253.316406 C 248.996094 253.808594 248.335938 254.316406 247.671875 254.828125 C 246.984375 255.304688 246.292969 255.785156 245.617188 256.257812 C 244.257812 257.1875 242.980469 258.109375 241.828125 258.832031 C 240.664062 259.535156 239.675781 260.109375 238.988281 260.46875 C 237.613281 261.1875 237.429688 261.039062 239.402344 259.339844 C 246.101562 253.839844 257.578125 243.132812 266.886719 229.195312 C 267.617188 228.238281 268.289062 227.222656 268.953125 226.1875 C 269.625 225.160156 270.304688 224.121094 270.988281 223.074219 C 272.316406 220.957031 273.546875 218.726562 274.855469 216.492188 C 275.1875 215.9375 275.566406 214.910156 276.054688 213.625 C 280.152344 205.5625 283.296875 197.289062 285.496094 189.863281 C 286.007812 187.992188 286.574219 186.207031 287 184.46875 C 287.40625 182.722656 287.796875 181.058594 288.167969 179.480469 C 288.5625 177.910156 288.765625 176.398438 289.050781 175.007812 C 289.300781 173.609375 289.589844 172.328125 289.757812 171.148438 C 290.007812 169.394531 290.253906 167.644531 290.503906 165.902344 C 290.773438 164.164062 290.847656 162.40625 291.03125 160.660156 C 291.164062 159.75 291.304688 158.902344 291.449219 158.132812 C 291.582031 157.363281 291.671875 156.664062 291.800781 156.054688 L 291.675781 152.71875 C 291.644531 151.609375 291.632812 150.496094 291.535156 149.390625 C 291.566406 139.96875 290.625 130.652344 288.757812 121.59375 C 287.84375 116.53125 286.777344 111.484375 285.273438 106.597656 C 285.167969 106.746094 285.242188 107.589844 284.789062 106.707031 C 283.070312 101.171875 280.769531 95.859375 278.398438 90.609375 C 275.824219 85.457031 273.160156 80.34375 269.980469 75.546875 C 269.382812 74.542969 268.839844 73.53125 268.246094 72.582031 C 267.648438 71.632812 267.066406 70.703125 266.5 69.792969 C 265.941406 68.878906 265.398438 67.984375 264.867188 67.113281 C 264.316406 66.257812 263.777344 65.429688 263.257812 64.621094 C 258.90625 60.054688 251.996094 52.335938 243.402344 45.011719 C 234.910156 37.570312 224.585938 30.84375 215.578125 26.441406 L 215.582031 26.5 C 206.582031 21.957031 197.03125 18.292969 187.039062 15.820312 C 185.414062 15.3125 183.871094 14.804688 182.425781 14.292969 C 179.894531 13.953125 177.238281 13.574219 175.976562 13.4375 C 167.898438 11.984375 160.972656 11.183594 153.976562 10.839844 C 152.707031 10.910156 150.320312 11.453125 147.625 11.515625 C 146.273438 11.507812 144.9375 11.621094 143.613281 11.71875 C 142.289062 11.820312 140.976562 11.914062 139.671875 12.011719 C 137.066406 12.28125 134.515625 12.660156 131.988281 12.988281 C 130.515625 13.238281 129.039062 13.492188 127.554688 13.742188 L 125.328125 14.117188 L 123.117188 14.601562 C 121.640625 14.925781 120.160156 15.253906 118.679688 15.582031 C 117.210938 15.980469 115.738281 16.375 114.261719 16.777344 C 94.398438 22.238281 76.113281 32.144531 60.683594 45.1875 C 60.082031 45.484375 59.824219 45.429688 59.5625 45.378906 C 58.429688 46.484375 57.117188 47.847656 55.765625 49.109375 C 55.09375 49.75 54.433594 50.378906 53.808594 50.972656 C 53.207031 51.585938 52.671875 52.191406 52.207031 52.722656 C 52.527344 52.285156 52.703125 51.980469 52.5625 51.960938 C 51.027344 53.710938 49.757812 55.054688 48.679688 56.238281 C 47.632812 57.449219 46.722656 58.441406 45.816406 59.40625 C 45.363281 59.886719 44.910156 60.359375 44.445312 60.847656 C 44.003906 61.355469 43.550781 61.878906 43.0625 62.441406 C 42.101562 63.570312 40.988281 64.828125 39.695312 66.472656 C 38.609375 68.019531 37.757812 69.578125 36.734375 71.125 C 36.167969 71.84375 35.6875 72.625 35.164062 73.390625 C 29.195312 80.808594 24.984375 89.417969 21.109375 99.238281 C 17.058594 108.992188 14.015625 119.207031 12.261719 129.683594 C 11.957031 131.761719 11.660156 133.519531 11.371094 135.078125 C 11.0625 136.628906 10.925781 138 10.695312 139.28125 C 10.476562 140.570312 10.273438 141.777344 10.0625 143.023438 C 9.882812 144.273438 9.761719 145.574219 9.617188 147.039062 " fill-opacity="1" fill-rule="nonzero"/></g><path fill="#e3d9ca" d="M 234.90625 37.546875 C 227.148438 31.691406 218.800781 26.636719 210.015625 22.496094 C 219.53125 26.765625 227.847656 31.308594 234.90625 37.546875 " fill-opacity="1" fill-rule="nonzero"/><path fill="#e3d9ca" d="M 233.347656 263.152344 C 231.695312 264.09375 229.96875 265.136719 228.089844 266.125 C 226.226562 267.140625 224.324219 268.273438 222.25 269.300781 C 243.277344 257.109375 261.039062 239.355469 273.109375 217.777344 L 273.167969 217.777344 C 268.402344 226.453125 261.328125 236.367188 253.59375 244.414062 C 245.972656 252.570312 238.042969 259.046875 233.347656 263.152344 " fill-opacity="1" fill-rule="nonzero"/><path fill="#e3d9ca" d="M 254.542969 55.296875 C 254.242188 55.054688 253.878906 54.738281 253.496094 54.40625 C 253.476562 54.382812 253.460938 54.367188 253.4375 54.339844 C 253.765625 54.59375 254.140625 54.921875 254.542969 55.296875 " fill-opacity="1" fill-rule="nonzero"/><path fill="#e3d9ca" d="M 193.550781 291.160156 C 192.738281 291.386719 191.945312 291.609375 191.136719 291.832031 L 195.695312 290.464844 C 197.226562 290.035156 198.699219 289.433594 200.203125 288.929688 C 203.222656 287.9375 206.144531 286.679688 209.089844 285.492188 C 204.449219 287.542969 199.15625 289.585938 193.550781 291.160156 " fill-opacity="1" fill-rule="nonzero"/><path fill="#e3d9ca" d="M 125.980469 293.738281 C 125.1875 293.589844 124.386719 293.480469 123.59375 293.308594 L 121.230469 292.777344 C 119.65625 292.414062 118.070312 292.085938 116.503906 291.695312 C 113.398438 290.800781 110.242188 290.050781 107.191406 288.960938 C 101.011719 287.027344 95.042969 284.476562 89.183594 281.730469 C 74.269531 274.292969 61.113281 264.183594 50.523438 252.855469 C 70.664062 273.464844 97.167969 288.054688 125.980469 293.738281 " fill-opacity="1" fill-rule="nonzero"/><path fill="#e3d9ca" d="M 190.90625 283 C 189.683594 283.296875 188.464844 283.625 187.226562 283.882812 C 185.984375 284.117188 184.738281 284.355469 183.488281 284.589844 C 181.003906 285.117188 178.460938 285.390625 175.941406 285.75 C 178.453125 285.3125 180.976562 284.949219 183.441406 284.339844 L 187.152344 283.511719 C 188.382812 283.210938 189.597656 282.84375 190.816406 282.511719 C 189.9375 282.914062 190.769531 282.886719 190.90625 283 " fill-opacity="1" fill-rule="nonzero"/><path fill="#e3d9ca" d="M 240.703125 267.195312 C 239.671875 267.972656 238.601562 268.710938 237.558594 269.464844 C 240.226562 267.496094 242.710938 265.277344 245.226562 263.132812 C 244.324219 263.941406 242.199219 265.851562 240.703125 267.195312 " fill-opacity="1" fill-rule="nonzero"/><path fill="#e3d9ca" d="M 137.277344 286.269531 C 139.121094 286.574219 140.980469 286.703125 142.832031 286.871094 C 144.683594 287.039062 146.53125 287.222656 148.382812 287.253906 C 146.167969 287.335938 143.988281 287.214844 141.777344 287.226562 C 140.59375 286.925781 139.046875 286.660156 137.277344 286.269531 " fill-opacity="1" fill-rule="nonzero"/><path fill="#e3d9ca" d="M 82.886719 267.777344 C 80.722656 266.421875 78.609375 265.050781 76.558594 263.679688 C 74.570312 262.207031 72.550781 260.851562 70.703125 259.359375 C 75.445312 262.839844 80.453125 266.234375 85.671875 269.097656 C 84.417969 268.550781 83.421875 268.132812 82.886719 267.777344 " fill-opacity="1" fill-rule="nonzero"/></g></g></g><g fill="#e3d9ca" fill-opacity="1"><g transform="translate(94.991029, 216.05004)"><g><path d="M 1.53125 -36.859375 L 12.671875 -36.859375 C 11.816406 -36.523438 11.1875 -36.15625 10.78125 -35.75 C 10.375 -35.34375 10.128906 -34.785156 10.046875 -34.078125 C 9.960938 -33.378906 9.921875 -32.390625 9.921875 -31.109375 L 9.921875 -4.984375 C 9.921875 -3.671875 10.101562 -2.710938 10.46875 -2.109375 C 10.832031 -1.515625 11.460938 -1.175781 12.359375 -1.09375 L 16.25 -1.09375 C 18.425781 -1.09375 20.207031 -1.503906 21.59375 -2.328125 C 22.988281 -3.160156 24.207031 -4.453125 25.25 -6.203125 C 26.289062 -7.953125 27.390625 -10.171875 28.546875 -12.859375 L 25.40625 0 L 1.53125 0 C 2.425781 -0.382812 3.066406 -0.78125 3.453125 -1.1875 C 3.835938 -1.59375 4.070312 -2.132812 4.15625 -2.8125 C 4.238281 -3.5 4.28125 -4.484375 4.28125 -5.765625 L 4.28125 -30.90625 C 4.28125 -32.226562 4.238281 -33.253906 4.15625 -33.984375 C 4.070312 -34.710938 3.835938 -35.273438 3.453125 -35.671875 C 3.066406 -36.078125 2.425781 -36.472656 1.53125 -36.859375 Z M 1.53125 -36.859375 "/></g></g></g><g fill="#e3d9ca" fill-opacity="1"><g transform="translate(125.517215, 216.05004)"><g><path d="M 23.8125 -16.515625 L 23.8125 -4.921875 C 23.8125 -3.734375 23.875 -2.914062 24 -2.46875 C 24.125 -2.019531 24.359375 -1.796875 24.703125 -1.796875 C 25.085938 -1.796875 25.445312 -1.929688 25.78125 -2.203125 C 26.125 -2.484375 26.507812 -2.859375 26.9375 -3.328125 L 26.9375 -1.921875 C 26.601562 -1.492188 25.988281 -1.066406 25.09375 -0.640625 C 24.195312 -0.210938 23.300781 0 22.40625 0 C 21.375 0 20.484375 -0.273438 19.734375 -0.828125 C 18.992188 -1.378906 18.625 -2.171875 18.625 -3.203125 L 18.625 -3.390625 C 17.9375 -2.578125 16.929688 -1.804688 15.609375 -1.078125 C 14.285156 -0.359375 12.6875 0 10.8125 0 C 8.125 0 5.90625 -0.570312 4.15625 -1.71875 C 2.40625 -2.875 1.53125 -4.414062 1.53125 -6.34375 C 1.53125 -8.851562 3.015625 -10.90625 5.984375 -12.5 C 8.953125 -14.101562 13.164062 -15.566406 18.625 -16.890625 C 18.582031 -19.328125 18.144531 -21.238281 17.3125 -22.625 C 16.476562 -24.007812 14.929688 -24.703125 12.671875 -24.703125 C 11.390625 -24.703125 10.394531 -24.519531 9.6875 -24.15625 C 8.988281 -23.789062 8.445312 -23.242188 8.0625 -22.515625 C 7.675781 -21.796875 7.269531 -20.90625 6.84375 -19.84375 C 6.675781 -19.332031 6.347656 -18.914062 5.859375 -18.59375 C 5.367188 -18.269531 4.820312 -18.171875 4.21875 -18.296875 C 3.582031 -18.429688 3.019531 -18.828125 2.53125 -19.484375 C 2.039062 -20.148438 2.007812 -20.863281 2.4375 -21.625 C 2.820312 -22.269531 3.566406 -22.910156 4.671875 -23.546875 C 5.785156 -24.191406 7.109375 -24.726562 8.640625 -25.15625 C 10.171875 -25.582031 11.769531 -25.796875 13.4375 -25.796875 C 17.28125 -25.796875 19.96875 -24.929688 21.5 -23.203125 C 23.039062 -21.472656 23.8125 -19.242188 23.8125 -16.515625 Z M 11.640625 -1.15625 C 13.179688 -1.15625 14.566406 -1.523438 15.796875 -2.265625 C 17.035156 -3.015625 17.976562 -3.773438 18.625 -4.546875 L 18.625 -15.8125 C 15.675781 -15.082031 13.335938 -14.320312 11.609375 -13.53125 C 9.890625 -12.75 8.644531 -11.820312 7.875 -10.75 C 7.101562 -9.6875 6.71875 -8.363281 6.71875 -6.78125 C 6.71875 -4.945312 7.164062 -3.550781 8.0625 -2.59375 C 8.957031 -1.632812 10.148438 -1.15625 11.640625 -1.15625 Z M 11.640625 -1.15625 "/></g></g></g><g fill="#e3d9ca" fill-opacity="1"><g transform="translate(153.611542, 216.05004)"><g><path d="M 9.46875 -6.015625 C 9.46875 -4.691406 9.507812 -3.664062 9.59375 -2.9375 C 9.6875 -2.21875 9.929688 -1.644531 10.328125 -1.21875 C 10.734375 -0.789062 11.363281 -0.382812 12.21875 0 L 1.53125 0 C 2.425781 -0.382812 3.066406 -0.78125 3.453125 -1.1875 C 3.835938 -1.59375 4.070312 -2.132812 4.15625 -2.8125 C 4.238281 -3.5 4.28125 -4.484375 4.28125 -5.765625 L 4.28125 -21.625 C 4.28125 -22.613281 4.160156 -23.351562 3.921875 -23.84375 C 3.691406 -24.332031 2.894531 -24.703125 1.53125 -24.953125 L 9.46875 -26.296875 L 9.46875 -23.6875 C 10.96875 -24.320312 12.460938 -24.832031 13.953125 -25.21875 C 15.441406 -25.601562 16.9375 -25.796875 18.4375 -25.796875 C 20.4375 -25.796875 22.234375 -25.421875 23.828125 -24.671875 C 25.429688 -23.921875 26.703125 -22.648438 27.640625 -20.859375 C 28.585938 -19.066406 29.0625 -16.59375 29.0625 -13.4375 L 29.0625 -6.015625 C 29.0625 -4.691406 29.101562 -3.664062 29.1875 -2.9375 C 29.269531 -2.21875 29.503906 -1.644531 29.890625 -1.21875 C 30.273438 -0.789062 30.914062 -0.382812 31.8125 0 L 21.0625 0 C 21.957031 -0.382812 22.59375 -0.78125 22.96875 -1.1875 C 23.351562 -1.59375 23.597656 -2.132812 23.703125 -2.8125 C 23.816406 -3.5 23.875 -4.484375 23.875 -5.765625 L 23.875 -12.921875 C 23.875 -15.992188 23.628906 -18.34375 23.140625 -19.96875 C 22.648438 -21.59375 21.921875 -22.710938 20.953125 -23.328125 C 19.992188 -23.941406 18.832031 -24.25 17.46875 -24.25 C 16.488281 -24.25 15.285156 -24.097656 13.859375 -23.796875 C 12.429688 -23.503906 10.96875 -23.0625 9.46875 -22.46875 Z M 9.46875 -6.015625 "/></g></g></g><g fill="#e3d9ca" fill-opacity="1"><g transform="translate(186.569552, 216.05004)"><g><path d="M 25.734375 -6.015625 C 25.734375 -4.484375 25.929688 -3.445312 26.328125 -2.90625 C 26.734375 -2.375 27.472656 -1.875 28.546875 -1.40625 L 20.609375 0 L 20.609375 -2.296875 C 20.222656 -1.785156 19.472656 -1.273438 18.359375 -0.765625 C 17.253906 -0.253906 15.957031 0 14.46875 0 C 11.863281 0 9.535156 -0.570312 7.484375 -1.71875 C 5.441406 -2.875 3.832031 -4.429688 2.65625 -6.390625 C 1.476562 -8.359375 0.890625 -10.535156 0.890625 -12.921875 C 0.890625 -15.316406 1.476562 -17.484375 2.65625 -19.421875 C 3.832031 -21.367188 5.441406 -22.914062 7.484375 -24.0625 C 9.535156 -25.21875 11.863281 -25.796875 14.46875 -25.796875 C 15.488281 -25.796875 16.601562 -25.515625 17.8125 -24.953125 C 19.03125 -24.398438 19.960938 -23.804688 20.609375 -23.171875 L 20.609375 -33.59375 C 20.609375 -34.539062 20.488281 -35.269531 20.25 -35.78125 C 20.019531 -36.289062 19.203125 -36.648438 17.796875 -36.859375 L 25.734375 -38.265625 Z M 20.609375 -3.453125 L 20.609375 -21.375 C 19.753906 -22.394531 18.6875 -23.203125 17.40625 -23.796875 C 16.125 -24.398438 14.863281 -24.703125 13.625 -24.703125 C 11.832031 -24.703125 10.367188 -24.175781 9.234375 -23.125 C 8.109375 -22.082031 7.300781 -20.675781 6.8125 -18.90625 C 6.320312 -17.132812 6.140625 -15.140625 6.265625 -12.921875 C 6.441406 -10.703125 6.898438 -8.707031 7.640625 -6.9375 C 8.390625 -5.164062 9.414062 -3.757812 10.71875 -2.71875 C 12.019531 -1.675781 13.546875 -1.15625 15.296875 -1.15625 C 16.492188 -1.15625 17.601562 -1.441406 18.625 -2.015625 C 19.644531 -2.585938 20.304688 -3.066406 20.609375 -3.453125 Z M 20.609375 -3.453125 "/></g></g></g><g fill="#e3d9ca" fill-opacity="1"><g transform="translate(217.287724, 216.05004)"><g><path d="M 8.953125 -6.015625 C 8.953125 -4.691406 9.003906 -3.65625 9.109375 -2.90625 C 9.222656 -2.164062 9.472656 -1.59375 9.859375 -1.1875 C 10.242188 -0.78125 10.882812 -0.382812 11.78125 0 L 1.03125 0 C 1.925781 -0.382812 2.5625 -0.78125 2.9375 -1.1875 C 3.320312 -1.59375 3.566406 -2.132812 3.671875 -2.8125 C 3.785156 -3.5 3.84375 -4.484375 3.84375 -5.765625 L 3.84375 -21.625 C 3.84375 -22.613281 3.722656 -23.351562 3.484375 -23.84375 C 3.253906 -24.332031 2.4375 -24.703125 1.03125 -24.953125 L 8.953125 -26.296875 Z M 9.46875 -32.0625 C 9.46875 -31.207031 9.171875 -30.476562 8.578125 -29.875 C 7.984375 -29.28125 7.257812 -28.984375 6.40625 -28.984375 C 5.59375 -28.984375 4.875 -29.28125 4.25 -29.875 C 3.632812 -30.476562 3.328125 -31.207031 3.328125 -32.0625 C 3.328125 -32.914062 3.632812 -33.628906 4.25 -34.203125 C 4.875 -34.785156 5.59375 -35.078125 6.40625 -35.078125 C 7.257812 -35.078125 7.984375 -34.785156 8.578125 -34.203125 C 9.171875 -33.628906 9.46875 -32.914062 9.46875 -32.0625 Z M 9.46875 -32.0625 "/></g></g></g><g fill="#e3d9ca" fill-opacity="1"><g transform="translate(231.750892, 216.05004)"><g><path d="M 5.25 -6.015625 L 5.25 -24.703125 L 2.046875 -24.703125 L 2.046875 -25.796875 L 5.25 -25.796875 C 5.375 -28.222656 5.773438 -30.234375 6.453125 -31.828125 C 7.140625 -33.429688 7.972656 -34.703125 8.953125 -35.640625 C 9.941406 -36.585938 10.96875 -37.257812 12.03125 -37.65625 C 13.09375 -38.0625 14.03125 -38.265625 14.84375 -38.265625 C 16 -38.265625 17.085938 -38.070312 18.109375 -37.6875 C 19.128906 -37.3125 19.96875 -36.8125 20.625 -36.1875 C 21.289062 -35.570312 21.625 -34.898438 21.625 -34.171875 C 21.625 -33.492188 21.304688 -32.875 20.671875 -32.3125 C 20.035156 -31.757812 19.3125 -31.359375 18.5 -31.109375 C 17.9375 -30.929688 17.5625 -31.046875 17.375 -31.453125 C 17.1875 -31.859375 17.09375 -32.253906 17.09375 -32.640625 C 17.09375 -33.960938 16.859375 -35.039062 16.390625 -35.875 C 15.921875 -36.707031 15.109375 -37.125 13.953125 -37.125 C 12.546875 -37.125 11.597656 -36.25 11.109375 -34.5 C 10.617188 -32.75 10.375 -30.015625 10.375 -26.296875 L 10.375 -25.796875 L 16.390625 -25.796875 L 16.390625 -24.703125 L 10.375 -24.703125 L 10.375 -6.015625 C 10.375 -4.691406 10.425781 -3.664062 10.53125 -2.9375 C 10.632812 -2.21875 10.878906 -1.644531 11.265625 -1.21875 C 11.648438 -0.789062 12.289062 -0.382812 13.1875 0 L 2.4375 0 C 3.375 -0.382812 4.03125 -0.789062 4.40625 -1.21875 C 4.789062 -1.644531 5.023438 -2.21875 5.109375 -2.9375 C 5.203125 -3.664062 5.25 -4.691406 5.25 -6.015625 Z M 5.25 -6.015625 "/></g></g></g><g fill="#e3d9ca" fill-opacity="1"><g transform="translate(250.949774, 216.05004)"><g><path d="M 22.46875 -25.796875 L 29.5625 -25.796875 C 28.28125 -25.234375 27.039062 -24.109375 25.84375 -22.421875 C 24.65625 -20.742188 23.675781 -19.03125 22.90625 -17.28125 C 22.820312 -17.113281 22.546875 -16.535156 22.078125 -15.546875 C 21.609375 -14.566406 21.050781 -13.375 20.40625 -11.96875 C 19.769531 -10.5625 19.109375 -9.117188 18.421875 -7.640625 C 17.742188 -6.171875 17.117188 -4.804688 16.546875 -3.546875 C 15.972656 -2.285156 15.535156 -1.316406 15.234375 -0.640625 C 13.054688 4.140625 10.890625 7.488281 8.734375 9.40625 C 6.578125 11.320312 4.5625 12.28125 2.6875 12.28125 C 1.15625 12.28125 -0.25 11.914062 -1.53125 11.1875 C -2.8125 10.46875 -3.515625 9.535156 -3.640625 8.390625 C -3.691406 7.703125 -3.363281 7.035156 -2.65625 6.390625 C -1.945312 5.753906 -1.273438 5.351562 -0.640625 5.1875 C -0.128906 5.007812 0.238281 5.144531 0.46875 5.59375 C 0.707031 6.039062 0.828125 6.523438 0.828125 7.046875 C 0.828125 8.367188 1.039062 9.378906 1.46875 10.078125 C 1.894531 10.785156 2.617188 11.140625 3.640625 11.140625 C 5.140625 11.140625 6.785156 10.132812 8.578125 8.125 C 10.367188 6.125 11.988281 3.566406 13.4375 0.453125 L 5.25 -17.28125 C 4.476562 -19.03125 3.566406 -20.742188 2.515625 -22.421875 C 1.472656 -24.109375 0.289062 -25.234375 -1.03125 -25.796875 L 9.734375 -25.796875 C 8.835938 -25.453125 8.34375 -24.988281 8.25 -24.40625 C 8.164062 -23.832031 8.316406 -23.128906 8.703125 -22.296875 C 9.085938 -21.472656 9.535156 -20.503906 10.046875 -19.390625 L 16.3125 -5.765625 L 22.59375 -19.390625 C 23.363281 -21.054688 23.875 -22.398438 24.125 -23.421875 C 24.382812 -24.441406 23.832031 -25.234375 22.46875 -25.796875 Z M 22.46875 -25.796875 "/></g></g></g><g transform="matrix(1, 0, 0, 1, 142, 123)"><g clip-path="url(#e18c9b9ddc)"><g clip-path="url(#16d33d67ec)"><g clip-path="url(#59b3a1876a)"><g clip-path="url(#60bdccd3d3)"><path fill="#e3d9ca" d="M 30.582031 4.5625 C 30.355469 4.789062 30.152344 5.039062 29.972656 5.308594 C 29.792969 5.574219 29.640625 5.859375 29.519531 6.15625 C 29.394531 6.453125 29.300781 6.761719 29.238281 7.078125 C 29.175781 7.394531 29.144531 7.714844 29.144531 8.035156 C 29.144531 8.359375 29.175781 8.679688 29.238281 8.996094 C 29.300781 9.3125 29.394531 9.617188 29.519531 9.914062 C 29.640625 10.214844 29.792969 10.496094 29.972656 10.765625 C 30.152344 11.03125 30.355469 11.28125 30.582031 11.507812 L 37.527344 4.5625 C 37.300781 4.335938 37.054688 4.132812 36.785156 3.953125 C 36.515625 3.773438 36.234375 3.621094 35.933594 3.5 C 35.636719 3.375 35.332031 3.28125 35.015625 3.21875 C 34.699219 3.15625 34.378906 3.125 34.054688 3.125 C 33.734375 3.125 33.414062 3.15625 33.097656 3.21875 C 32.78125 3.28125 32.472656 3.375 32.175781 3.5 C 31.878906 3.621094 31.59375 3.773438 31.328125 3.953125 C 31.058594 4.132812 30.808594 4.335938 30.582031 4.5625 Z M 30.582031 4.5625 " fill-opacity="1" fill-rule="nonzero"/></g></g></g><g clip-path="url(#af11e8a98f)"><path fill="#e3d9ca" d="M 90.136719 33.882812 L 80.617188 24.316406 L 76.621094 24.316406 L 68.15625 15.703125 L 66.289062 17.476562 L 50.8125 1.878906 L 43.0625 9.582031 L 39.164062 5.585938 L 23.617188 21.253906 L 20.410156 18.191406 L 12.085938 26.421875 L 10.222656 24.652344 L 0.84375 33.933594 L 18.304688 33.933594 L 25.722656 28.382812 L 23.710938 26.039062 L 26.058594 24.171875 L 24.382812 21.972656 L 38.972656 7.957031 L 38.875 11.160156 L 36.628906 13.648438 L 37.347656 16.949219 L 33.28125 18.242188 L 31.175781 21.0625 L 31.890625 29.097656 L 29.023438 33.882812 L 46.722656 33.980469 L 50.359375 29.816406 L 57.199219 27.234375 L 58.300781 24.460938 L 56.050781 23.835938 L 55.285156 21.0625 L 61.886719 21.875 L 67.199219 18.71875 L 67.867188 20.726562 L 63.371094 26.085938 L 59.6875 27.234375 L 59.640625 31.875 L 63.179688 33.933594 Z M 90.136719 33.882812 " fill-opacity="1" fill-rule="evenodd"/></g><path fill="#e3d9ca" d="M 49.773438 4.488281 L 50.25 5.875 L 48.191406 8.121094 L 48.386719 13.097656 L 45.992188 15.441406 L 44.988281 19.652344 L 46.136719 21.421875 L 43.503906 24.101562 L 43.457031 27.738281 L 41.257812 27.738281 L 38.148438 29.890625 L 35.949219 29.84375 L 39.867188 25.871094 L 35.753906 25.34375 L 38.386719 22.234375 L 41.496094 14.246094 L 44.511719 12.382812 L 44.558594 9.75 Z M 49.773438 4.488281 " fill-opacity="1" fill-rule="evenodd"/></g></g></svg>